<svg id="ChemicalSchematicsSVG" xmlns="http://www.w3.org/2000/svg">
	<g xmlns="http://www.w3.org/2000/svg" id="schematic1529520806983" nativeWidth="149" nativeHeight="190" myscale="1.0" transform="translate(-19,-43)" category="Schematic" description="Menthol (+)" name="Francis Hemsher" email="fhemsher@gmail.com" utcMS="1529520806983" parentid="schematic1529520806983"><g xmlns="http://www.w3.org/2000/svg" nativewidth="155.884521484375" nativeheight="149.9999237060547" myscale="0.55" transform="matrix(0.55 0 0 0.55 -116.058 -27.55)" category="Skeletal Structure" name="Francis Hemsher" email="fhemsher@gmail.com" utcms="1529445272014" parentid="component1529445272014"><polygon stroke="#000000" stroke-width="3" fill="white" fill-opacity="0" vcnt="6" length="60" transform="matrix(0.866025 0.5 -0.5 0.866025 400 281)" points="60 0 30 -51.9615 -30 -51.9615 -60 -7.34788e-15 -30 51.9615 30 51.9615" size="edge"/></g>
<g xmlns="http://www.w3.org/2000/svg" nativewidth="101" nativeheight="29" myscale="0.45" transform="matrix(0.45 0 0 0.45 -74.275 80.025)" category="Skeletal Structure" name="Francis Hemsher" email="fhemsher@gmail.com" utcms="1529498251709" parentid="component1529498251709"><path fill="none" fill-opacity="1.0" stroke="#000000" stroke-width="3" d="M 349 280 L 400 251 L 450 280" type="linear" stroke-opacity="1.0"/></g>
<g xmlns="http://www.w3.org/2000/svg" nativewidth="21" nativeheight="59" myscale="0.5" transform="matrix(0.5 0 0 0.5 29.75 11.25)" category="Skeletal Structure" name="Francis Hemsher" email="fhemsher@gmail.com" utcms="1529504660418" parentid="component1529504660418"><path fill="#000000" fill-opacity="1.0" stroke="#000000" stroke-width="1" d="M 139 111 L 160 112 L 148 170 z" type="linear" stroke-opacity="1.0"/></g>
<g xmlns="http://www.w3.org/2000/svg" nativewidth="21" nativeheight="59" myscale="0.5" transform="matrix(-0.25 -0.433013 0.433013 -0.25 39.264 250.11)" category="Skeletal Structure" name="Francis Hemsher" email="fhemsher@gmail.com" utcms="1529504660418" parentid="component1529504660418"><path fill="#000000" fill-opacity="1.0" stroke="#000000" stroke-width="1" d="M 139 111 L 160 112 L 148 170 z" type="linear" stroke-opacity="1.0"/></g>
<g xmlns="http://www.w3.org/2000/svg" nativewidth="21" nativeheight="58" myscale="0.5" transform="matrix(-0.5 -2.42861e-16 2.42861e-16 -0.5 208.25 246.5)" category="Skeletal Structure" name="Francis Hemsher" email="fhemsher@gmail.com" utcms="1529504845712" parentid="component1529504845712"><defs><pattern id="fill15295048212190" patternUnits="userSpaceOnUse" width="3" height="3" addto="fill"><path d="M 0,1.5 l 3,0" stroke-width="1" shape-rendering="auto" stroke="#000000" stroke-linecap="square"/></pattern></defs><path fill="url(#fill15295048212190)" stroke="#000000" stroke-width="1" d="M 197 111 L 218 111 L 206 169 z" type="linear" stroke-opacity="1.0" fill-opacity="null"/></g>
<text font-family="Arial" font-size="20" font-weight="normal" font-style="normal" stroke="none" stroke-width="0.4" fill="#000000" transform="matrix(1 0 0 1 85 61)" filter="null">CH<tspan baseline-shift="sub">3</tspan></text><text font-family="Arial" font-size="20" font-weight="normal" font-style="normal" stroke="none" stroke-width="0" fill="#000000" transform="matrix(1 0 0 1 19 169)">HO</text><text font-family="Arial" font-size="20" font-weight="normal" font-style="normal" stroke="none" stroke-width="0" fill="#000000" transform="matrix(1 0 0 1 128 218)">CH<tspan baseline-shift="sub">3</tspan></text><text font-family="Arial" font-size="20" font-weight="normal" font-style="normal" stroke="none" stroke-width="0" fill="#000000" transform="matrix(1 0 0 1 43 217)">H<tspan baseline-shift="sub">3</tspan></text><text font-family="Arial" font-size="20" font-weight="normal" font-style="normal" stroke="none" stroke-width="0" fill="#000000" transform="matrix(1 0 0 1 69 219)">C</text><rect width="149" height="190" stroke="none" fill="white" fill-opacity="0" transform="translate(19,43)"/></g>
<g xmlns="http://www.w3.org/2000/svg" id="schematic1529529790666" nativeWidth="145" nativeHeight="188" myscale="1.0" transform="translate(-208,-23)" category="Schematic" description="Isomenthol (+)" name="Francis Hemsher" email="fhemsher@gmail.com" utcMS="1529529790666" parentid="schematic1529529790666"><g xmlns="http://www.w3.org/2000/svg" nativewidth="155.884521484375" nativeheight="149.9999237060547" myscale="0.5" transform="matrix(0.5 0 0 0.5 92.9423 -35.5)" category="Skeletal Structure" name="Francis Hemsher" email="fhemsher@gmail.com" utcms="1529445272014" parentid="component1529445272014"><polygon stroke="#000000" stroke-width="3" fill="white" fill-opacity="0" vcnt="6" length="60" transform="matrix(0.866025 0.5 -0.5 0.866025 400 281)" points="60 0 30 -51.9615 -30 -51.9615 -60 -7.34788e-15 -30 51.9615 30 51.9615" size="edge"/></g>
<g xmlns="http://www.w3.org/2000/svg" nativewidth="21" nativeheight="58" myscale="0.5" transform="matrix(0.5 0 0 0.5 189.75 -7)" category="Skeletal Structure" name="Francis Hemsher" email="fhemsher@gmail.com" utcms="1529504845712" parentid="component1529504845712"><defs><pattern id="fill15295048212190" patternUnits="userSpaceOnUse" width="3" height="3" addto="fill"><path d="M 0,1.5 l 3,0" stroke-width="1" shape-rendering="auto" stroke="#000000" stroke-linecap="square"/></pattern></defs><path fill="url(#fill15295048212190)" stroke="#000000" stroke-width="1" d="M 197 111 L 218 111 L 206 169 z" type="linear" stroke-opacity="1.0" fill-opacity="null"/></g>
<g xmlns="http://www.w3.org/2000/svg" nativewidth="21" nativeheight="59" myscale="0.5" transform="matrix(-0.25 -0.433013 0.433013 -0.25 231.264 226.11)" category="Skeletal Structure" name="Francis Hemsher" email="fhemsher@gmail.com" utcms="1529504660418" parentid="component1529504660418"><path fill="#000000" fill-opacity="1.0" stroke="#000000" stroke-width="1" d="M 139 111 L 160 112 L 148 170 z" type="linear" stroke-opacity="1.0"/></g>
<g xmlns="http://www.w3.org/2000/svg" nativewidth="21" nativeheight="58" myscale="0.5" transform="matrix(-0.5 -9.71445e-17 9.71445e-17 -0.5 397.25 220.5)" category="Skeletal Structure" name="Francis Hemsher" email="fhemsher@gmail.com" utcms="1529504845712" parentid="component1529504845712"><defs><pattern id="fill15295048212190" patternUnits="userSpaceOnUse" width="3" height="3" addto="fill"><path d="M 0,1.5 l 3,0" stroke-width="1" shape-rendering="auto" stroke="#000000" stroke-linecap="square"/></pattern></defs><path fill="url(#fill15295048212190)" stroke="#000000" stroke-width="1" d="M 197 111 L 218 111 L 206 169 z" type="linear" stroke-opacity="1.0" fill-opacity="null"/></g>
<text font-family="Arial" font-size="20" font-weight="normal" font-style="normal" stroke="none" stroke-width="0.4" fill="#000000" transform="matrix(1 0 0 1 275 41)" filter="null">CH<tspan baseline-shift="sub">3</tspan></text><text font-family="Arial" font-size="20" font-weight="normal" font-style="normal" stroke="none" stroke-width="0.4" fill="#000000" transform="matrix(1 0 0 1 313 196)" filter="null">CH<tspan baseline-shift="sub">3</tspan></text><text font-family="Arial" font-size="20" font-weight="normal" font-style="normal" stroke="none" stroke-width="0.4" fill="#000000" transform="matrix(1 0 0 1 208 146)" filter="null">HO</text><text font-family="Arial" font-size="20" font-weight="normal" font-style="normal" stroke="none" stroke-width="0.4" fill="#000000" transform="matrix(1 0 0 1 227 195)" filter="null">H<tspan baseline-shift="sub">3</tspan></text><text font-family="Arial" font-size="20" font-weight="normal" font-style="normal" stroke="none" stroke-width="0" fill="#000000" transform="matrix(1 0 0 1 254 196)">C</text><g xmlns="http://www.w3.org/2000/svg" nativewidth="101" nativeheight="29" myscale="0.5" transform="matrix(0.5 0 0 0.5 93.75 40.75)" category="Skeletal Structure" name="Francis Hemsher" email="fhemsher@gmail.com" utcms="1529498251709" parentid="component1529498251709"><path fill="none" fill-opacity="1.0" stroke="#000000" stroke-width="3" d="M 349 280 L 400 251 L 450 280" type="linear" stroke-opacity="1.0"/></g>
<rect width="145" height="188" stroke="none" fill="white" fill-opacity="0" transform="translate(208,23)"/></g>
<g xmlns="http://www.w3.org/2000/svg" id="schematic1529529837397" nativeWidth="143" nativeHeight="185" myscale="1.0" transform="translate(-390,-26)" category="Schematic" description="Neomenthol (+)" name="Francis Hemsher" email="fhemsher@gmail.com" utcMS="1529529837397" parentid="schematic1529529837397"><g xmlns="http://www.w3.org/2000/svg" nativewidth="155.884521484375" nativeheight="149.9999237060547" myscale="0.5" transform="matrix(0.5 0 0 0.5 272.942 -35.5)" category="Skeletal Structure" name="Francis Hemsher" email="fhemsher@gmail.com" utcms="1529445272014" parentid="component1529445272014"><polygon stroke="#000000" stroke-width="3" fill="white" fill-opacity="0" vcnt="6" length="60" transform="matrix(0.866025 0.5 -0.5 0.866025 400 281)" points="60 0 30 -51.9615 -30 -51.9615 -60 -7.34788e-15 -30 51.9615 30 51.9615" size="edge"/></g>
<g xmlns="http://www.w3.org/2000/svg" nativewidth="21" nativeheight="59" myscale="0.5" transform="matrix(-0.5 2.42861e-16 -2.42861e-16 -0.5 547.25 221.75)" category="Skeletal Structure" name="Francis Hemsher" email="fhemsher@gmail.com" utcms="1529504660418" parentid="component1529504660418"><path fill="#000000" fill-opacity="1.0" stroke="#000000" stroke-width="1" d="M 139 111 L 160 112 L 148 170 z" type="linear" stroke-opacity="1.0"/></g>
<g xmlns="http://www.w3.org/2000/svg" nativewidth="21" nativeheight="58" myscale="0.5" transform="matrix(0.5 0 0 0.5 369.75 -7)" category="Skeletal Structure" name="Francis Hemsher" email="fhemsher@gmail.com" utcms="1529504845712" parentid="component1529504845712"><defs><pattern id="fill15295048212190" patternUnits="userSpaceOnUse" width="3" height="3" addto="fill"><path d="M 0,1.5 l 3,0" stroke-width="1" shape-rendering="auto" stroke="#000000" stroke-linecap="square"/></pattern></defs><path fill="url(#fill15295048212190)" stroke="#000000" stroke-width="1" d="M 197 111 L 218 111 L 206 169 z" type="linear" stroke-opacity="1.0" fill-opacity="null"/></g>
<g xmlns="http://www.w3.org/2000/svg" nativewidth="21" nativeheight="59" myscale="0.5" transform="matrix(-0.25 -0.433013 0.433013 -0.25 409.754 226.62)" category="Skeletal Structure" name="Francis Hemsher" email="fhemsher@gmail.com" utcms="1529504660418" parentid="component1529504660418"><path fill="#000000" fill-opacity="1.0" stroke="#000000" stroke-width="1" d="M 139 111 L 160 112 L 148 170 z" type="linear" stroke-opacity="1.0"/></g>
<text font-family="Arial" font-size="20" font-weight="normal" font-style="normal" stroke="none" stroke-width="0.4" fill="#000000" transform="matrix(1 0 0 1 457 44)" filter="null">CH<tspan baseline-shift="sub">3</tspan></text><text font-family="Arial" font-size="20" font-weight="normal" font-style="normal" stroke="none" stroke-width="0.4" fill="#000000" transform="matrix(1 0 0 1 493 196)" filter="null">CH<tspan baseline-shift="sub">3</tspan></text><text font-family="Arial" font-size="20" font-weight="normal" font-style="normal" stroke="none" stroke-width="0.4" fill="#000000" transform="matrix(1 0 0 1 390 147)" filter="null">HO</text><text font-family="Arial" font-size="20" font-weight="normal" font-style="normal" stroke="none" stroke-width="0.4" fill="#000000" transform="matrix(1 0 0 1 408 196)" filter="null">H<tspan baseline-shift="sub">3</tspan></text><text font-family="Arial" font-size="20" font-weight="normal" font-style="normal" stroke="none" stroke-width="0" fill="#000000" transform="matrix(1 0 0 1 436 195)">C</text><g xmlns="http://www.w3.org/2000/svg" nativewidth="101" nativeheight="29" myscale="0.5" transform="matrix(0.5 0 0 0.5 271.75 41.75)" category="Skeletal Structure" name="Francis Hemsher" email="fhemsher@gmail.com" utcms="1529498251709" parentid="component1529498251709"><path fill="none" fill-opacity="1.0" stroke="#000000" stroke-width="3" d="M 349 280 L 400 251 L 450 280" type="linear" stroke-opacity="1.0"/></g>
<rect width="143" height="185" stroke="none" fill="white" fill-opacity="0" transform="translate(390,26)"/></g>
<g xmlns="http://www.w3.org/2000/svg" id="schematic1529529868008" nativeWidth="145" nativeHeight="188" myscale="1.0" transform="translate(-589,-26)" category="Schematic" description="Neoisomenthol (+)" name="Francis Hemsher" email="fhemsher@gmail.com" utcMS="1529529868008" parentid="schematic1529529868008"><g xmlns="http://www.w3.org/2000/svg" nativewidth="155.884521484375" nativeheight="149.9999237060547" myscale="0.5" transform="matrix(0.5 0 0 0.5 473.942 -35.5)" category="Skeletal Structure" name="Francis Hemsher" email="fhemsher@gmail.com" utcms="1529445272014" parentid="component1529445272014"><polygon stroke="#000000" stroke-width="3" fill="white" fill-opacity="0" vcnt="6" length="60" transform="matrix(0.866025 0.5 -0.5 0.866025 400 281)" points="60 0 30 -51.9615 -30 -51.9615 -60 -7.34788e-15 -30 51.9615 30 51.9615" size="edge"/></g>
<g xmlns="http://www.w3.org/2000/svg" nativewidth="21" nativeheight="58" myscale="0.5" transform="matrix(0.5 0 0 0.5 572.75 -6)" category="Skeletal Structure" name="Francis Hemsher" email="fhemsher@gmail.com" utcms="1529504845712" parentid="component1529504845712"><defs><pattern id="fill15295048212190" patternUnits="userSpaceOnUse" width="3" height="3" addto="fill"><path d="M 0,1.5 l 3,0" stroke-width="1" shape-rendering="auto" stroke="#000000" stroke-linecap="square"/></pattern></defs><path fill="url(#fill15295048212190)" stroke="#000000" stroke-width="1" d="M 197 111 L 218 111 L 206 169 z" type="linear" stroke-opacity="1.0" fill-opacity="null"/></g>
<g xmlns="http://www.w3.org/2000/svg" nativewidth="21" nativeheight="58" myscale="0.5" transform="matrix(-0.5 -9.71445e-17 9.71445e-17 -0.5 777.25 218.5)" category="Skeletal Structure" name="Francis Hemsher" email="fhemsher@gmail.com" utcms="1529504845712" parentid="component1529504845712"><defs><pattern id="fill15295048212190" patternUnits="userSpaceOnUse" width="3" height="3" addto="fill"><path d="M 0,1.5 l 3,0" stroke-width="1" shape-rendering="auto" stroke="#000000" stroke-linecap="square"/></pattern></defs><path fill="url(#fill15295048212190)" stroke="#000000" stroke-width="1" d="M 197 111 L 218 111 L 206 169 z" type="linear" stroke-opacity="1.0" fill-opacity="null"/></g>
<g xmlns="http://www.w3.org/2000/svg" nativewidth="21" nativeheight="58" myscale="0.5" transform="matrix(-0.25 -0.433013 0.433013 -0.25 627.764 248.975)" category="Skeletal Structure" name="Francis Hemsher" email="fhemsher@gmail.com" utcms="1529504845712" parentid="component1529504845712"><defs><pattern id="fill15295048212190" patternUnits="userSpaceOnUse" width="3" height="3" addto="fill"><path d="M 0,1.5 l 3,0" stroke-width="1" shape-rendering="auto" stroke="#000000" stroke-linecap="square"/></pattern></defs><path fill="url(#fill15295048212190)" stroke="#000000" stroke-width="1" d="M 197 111 L 218 111 L 206 169 z" type="linear" stroke-opacity="1.0" fill-opacity="null"/></g>
<text font-family="Arial" font-size="20" font-weight="normal" font-style="normal" stroke="none" stroke-width="0.4" fill="#000000" transform="matrix(1 0 0 1 656 44)" filter="null">CH<tspan baseline-shift="sub">3</tspan></text><text font-family="Arial" font-size="20" font-weight="normal" font-style="normal" stroke="none" stroke-width="0.4" fill="#000000" transform="matrix(1 0 0 1 694 195)" filter="null">CH<tspan baseline-shift="sub">3</tspan></text><text font-family="Arial" font-size="20" font-weight="normal" font-style="normal" stroke="none" stroke-width="0.4" fill="#000000" transform="matrix(1 0 0 1 589 145)" filter="null">HO</text><text font-family="Arial" font-size="20" font-weight="normal" font-style="normal" stroke="none" stroke-width="0.4" fill="#000000" transform="matrix(1 0 0 1 608 199)" filter="null">H<tspan baseline-shift="sub">3</tspan></text><text font-family="Arial" font-size="20" font-weight="normal" font-style="normal" stroke="none" stroke-width="0" fill="#000000" transform="matrix(1 0 0 1 633 197)">C</text><g xmlns="http://www.w3.org/2000/svg" nativewidth="101" nativeheight="29" myscale="0.5" transform="matrix(0.5 0 0 0.5 474.75 38.75)" category="Skeletal Structure" name="Francis Hemsher" email="fhemsher@gmail.com" utcms="1529498251709" parentid="component1529498251709"><path fill="none" fill-opacity="1.0" stroke="#000000" stroke-width="3" d="M 349 280 L 400 251 L 450 280" type="linear" stroke-opacity="1.0"/></g>
<rect width="145" height="188" stroke="none" fill="white" fill-opacity="0" transform="translate(589,26)"/></g>
<g xmlns="http://www.w3.org/2000/svg" id="schematic1529529922016" nativeWidth="140" nativeHeight="188" myscale="1.0" transform="translate(-21,-295)" category="Schematic" description="Menthol (-)" name="Francis Hemsher" email="fhemsher@gmail.com" utcMS="1529529922016" parentid="schematic1529529922016"><g xmlns="http://www.w3.org/2000/svg" nativewidth="155.884521484375" nativeheight="149.9999237060547" myscale="0.5" transform="matrix(0.5 0 0 0.5 -94.0577 237.5)" category="Skeletal Structure" name="Francis Hemsher" email="fhemsher@gmail.com" utcms="1529445272014" parentid="component1529445272014"><polygon stroke="#000000" stroke-width="3" fill="white" fill-opacity="0" vcnt="6" length="60" transform="matrix(0.866025 0.5 -0.5 0.866025 400 281)" points="60 0 30 -51.9615 -30 -51.9615 -60 -7.34788e-15 -30 51.9615 30 51.9615" size="edge"/></g>
<g xmlns="http://www.w3.org/2000/svg" nativewidth="21" nativeheight="59" myscale="0.5" transform="matrix(-0.5 2.42861e-16 -2.42861e-16 -0.5 180.25 491.75)" category="Skeletal Structure" name="Francis Hemsher" email="fhemsher@gmail.com" utcms="1529504660418" parentid="component1529504660418"><path fill="#000000" fill-opacity="1.0" stroke="#000000" stroke-width="1" d="M 139 111 L 160 112 L 148 170 z" type="linear" stroke-opacity="1.0"/></g>
<g xmlns="http://www.w3.org/2000/svg" nativewidth="21" nativeheight="58" myscale="0.5" transform="matrix(0.5 0 0 0.5 2.75 266)" category="Skeletal Structure" name="Francis Hemsher" email="fhemsher@gmail.com" utcms="1529504845712" parentid="component1529504845712"><defs><pattern id="fill15295048212190" patternUnits="userSpaceOnUse" width="3" height="3" addto="fill"><path d="M 0,1.5 l 3,0" stroke-width="1" shape-rendering="auto" stroke="#000000" stroke-linecap="square"/></pattern></defs><path fill="url(#fill15295048212190)" stroke="#000000" stroke-width="1" d="M 197 111 L 218 111 L 206 169 z" type="linear" stroke-opacity="1.0" fill-opacity="null"/></g>
<g xmlns="http://www.w3.org/2000/svg" nativewidth="21" nativeheight="58" myscale="0.5" transform="matrix(-0.25 -0.433013 0.433013 -0.25 57.2544 524.485)" category="Skeletal Structure" name="Francis Hemsher" email="fhemsher@gmail.com" utcms="1529504845712" parentid="component1529504845712"><defs><pattern id="fill15295048212190" patternUnits="userSpaceOnUse" width="3" height="3" addto="fill"><path d="M 0,1.5 l 3,0" stroke-width="1" shape-rendering="auto" stroke="#000000" stroke-linecap="square"/></pattern></defs><path fill="url(#fill15295048212190)" stroke="#000000" stroke-width="1" d="M 197 111 L 218 111 L 206 169 z" type="linear" stroke-opacity="1.0" fill-opacity="null"/></g>
<text font-family="Arial" font-size="20" font-weight="normal" font-style="normal" stroke="none" stroke-width="0.4" fill="#000000" transform="matrix(1 0 0 1 86 313)" filter="null">CH<tspan baseline-shift="sub">3</tspan></text><text font-family="Arial" font-size="20" font-weight="normal" font-style="normal" stroke="none" stroke-width="0.4" fill="#000000" transform="matrix(1 0 0 1 121 468)" filter="null">CH<tspan baseline-shift="sub">3</tspan></text><text font-family="Arial" font-size="20" font-weight="normal" font-style="normal" stroke="none" stroke-width="0.4" fill="#000000" transform="matrix(1 0 0 1 21 419)" filter="null">HO</text><text font-family="Arial" font-size="20" font-weight="normal" font-style="normal" stroke="none" stroke-width="0.4" fill="#000000" transform="matrix(1 0 0 1 38 468)" filter="null">H<tspan baseline-shift="sub">3</tspan></text><text font-family="Arial" font-size="20" font-weight="normal" font-style="normal" stroke="none" stroke-width="0" fill="#000000" transform="matrix(1 0 0 1 67 469)">C</text><g xmlns="http://www.w3.org/2000/svg" nativewidth="101" nativeheight="29" myscale="0.5" transform="matrix(0.5 0 0 0.5 -96.25 308.75)" category="Skeletal Structure" name="Francis Hemsher" email="fhemsher@gmail.com" utcms="1529498251709" parentid="component1529498251709"><path fill="none" fill-opacity="1.0" stroke="#000000" stroke-width="3" d="M 349 280 L 400 251 L 450 280" type="linear" stroke-opacity="1.0"/></g>
<rect width="140" height="188" stroke="none" fill="white" fill-opacity="0" transform="translate(21,295)"/></g>
<g xmlns="http://www.w3.org/2000/svg" id="schematic1529529951260" nativeWidth="144" nativeHeight="183" myscale="1.0" transform="translate(-211,-299)" category="Schematic" description="Isomenthol (-)" name="Francis Hemsher" email="fhemsher@gmail.com" utcMS="1529529951260" parentid="schematic1529529951260"><g xmlns="http://www.w3.org/2000/svg" nativewidth="155.884521484375" nativeheight="149.9999237060547" myscale="0.5" transform="matrix(0.5 0 0 0.5 93.9423 237.5)" category="Skeletal Structure" name="Francis Hemsher" email="fhemsher@gmail.com" utcms="1529445272014" parentid="component1529445272014"><polygon stroke="#000000" stroke-width="3" fill="white" fill-opacity="0" vcnt="6" length="60" transform="matrix(0.866025 0.5 -0.5 0.866025 400 281)" points="60 0 30 -51.9615 -30 -51.9615 -60 -7.34788e-15 -30 51.9615 30 51.9615" size="edge"/></g>
<g xmlns="http://www.w3.org/2000/svg" nativewidth="21" nativeheight="59" myscale="0.5" transform="matrix(0.5 0 0 0.5 219.75 266.25)" category="Skeletal Structure" name="Francis Hemsher" email="fhemsher@gmail.com" utcms="1529504660418" parentid="component1529504660418"><path fill="#000000" fill-opacity="1.0" stroke="#000000" stroke-width="1" d="M 139 111 L 160 112 L 148 170 z" type="linear" stroke-opacity="1.0"/></g>
<g xmlns="http://www.w3.org/2000/svg" nativewidth="21" nativeheight="59" myscale="0.5" transform="matrix(-0.5 2.42861e-16 -2.42861e-16 -0.5 368.25 491.75)" category="Skeletal Structure" name="Francis Hemsher" email="fhemsher@gmail.com" utcms="1529504660418" parentid="component1529504660418"><path fill="#000000" fill-opacity="1.0" stroke="#000000" stroke-width="1" d="M 139 111 L 160 112 L 148 170 z" type="linear" stroke-opacity="1.0"/></g>
<g xmlns="http://www.w3.org/2000/svg" nativewidth="21" nativeheight="58" myscale="0.5" transform="matrix(-0.25 -0.433013 0.433013 -0.25 246.424 525.315)" category="Skeletal Structure" name="Francis Hemsher" email="fhemsher@gmail.com" utcms="1529504845712" parentid="component1529504845712"><defs><pattern id="fill15295048212190" patternUnits="userSpaceOnUse" width="3" height="3" addto="fill"><path d="M 0,1.5 l 3,0" stroke-width="1" shape-rendering="auto" stroke="#000000" stroke-linecap="square"/></pattern></defs><path fill="url(#fill15295048212190)" stroke="#000000" stroke-width="1" d="M 197 111 L 218 111 L 206 169 z" type="linear" stroke-opacity="1.0" fill-opacity="null"/></g>
<text font-family="Arial" font-size="20" font-weight="normal" font-style="normal" stroke="none" stroke-width="0.4" fill="#000000" transform="matrix(1 0 0 1 275 317)" filter="null">CH<tspan baseline-shift="sub">3</tspan></text><text font-family="Arial" font-size="20" font-weight="normal" font-style="normal" stroke="none" stroke-width="0.4" fill="#000000" transform="matrix(1 0 0 1 315 467)" filter="null">CH<tspan baseline-shift="sub">3</tspan></text><text font-family="Arial" font-size="20" font-weight="normal" font-style="normal" stroke="none" stroke-width="0.4" fill="#000000" transform="matrix(1 0 0 1 211 421)" filter="null">HO</text><text font-family="Arial" font-size="20" font-weight="normal" font-style="normal" stroke="none" stroke-width="0.4" fill="#000000" transform="matrix(1 0 0 1 231 467)" filter="null">H<tspan baseline-shift="sub">3</tspan></text><text font-family="Arial" font-size="20" font-weight="normal" font-style="normal" stroke="none" stroke-width="0" fill="#000000" transform="matrix(1 0 0 1 258 467)">C</text><g xmlns="http://www.w3.org/2000/svg" nativewidth="101" nativeheight="29" myscale="0.5" transform="matrix(0.5 0 0 0.5 94.75 311.75)" category="Skeletal Structure" name="Francis Hemsher" email="fhemsher@gmail.com" utcms="1529498251709" parentid="component1529498251709"><path fill="none" fill-opacity="1.0" stroke="#000000" stroke-width="3" d="M 349 280 L 400 251 L 450 280" type="linear" stroke-opacity="1.0"/></g>
<rect width="144" height="183" stroke="none" fill="white" fill-opacity="0" transform="translate(211,299)"/></g>
<g xmlns="http://www.w3.org/2000/svg" id="schematic1529529975960" nativeWidth="145" nativeHeight="190" myscale="1.0" transform="translate(-389,-297)" category="Schematic" description="Neomenthol (-)" name="Francis Hemsher" email="fhemsher@gmail.com" utcMS="1529529975960" parentid="schematic1529529975960"><g xmlns="http://www.w3.org/2000/svg" nativewidth="155.884521484375" nativeheight="149.9999237060547" myscale="0.5" transform="matrix(0.5 0 0 0.5 272.942 237.5)" category="Skeletal Structure" name="Francis Hemsher" email="fhemsher@gmail.com" utcms="1529445272014" parentid="component1529445272014"><polygon stroke="#000000" stroke-width="3" fill="white" fill-opacity="0" vcnt="6" length="60" transform="matrix(0.866025 0.5 -0.5 0.866025 400 281)" points="60 0 30 -51.9615 -30 -51.9615 -60 -7.34788e-15 -30 51.9615 30 51.9615" size="edge"/></g>
<g xmlns="http://www.w3.org/2000/svg" nativewidth="21" nativeheight="59" myscale="0.5" transform="matrix(0.5 0 0 0.5 399.75 265.25)" category="Skeletal Structure" name="Francis Hemsher" email="fhemsher@gmail.com" utcms="1529504660418" parentid="component1529504660418"><path fill="#000000" fill-opacity="1.0" stroke="#000000" stroke-width="1" d="M 139 111 L 160 112 L 148 170 z" type="linear" stroke-opacity="1.0"/></g>
<g xmlns="http://www.w3.org/2000/svg" nativewidth="21" nativeheight="58" myscale="0.5" transform="matrix(-0.5 -9.71445e-17 9.71445e-17 -0.5 577.25 493.5)" category="Skeletal Structure" name="Francis Hemsher" email="fhemsher@gmail.com" utcms="1529504845712" parentid="component1529504845712"><defs><pattern id="fill15295048212190" patternUnits="userSpaceOnUse" width="3" height="3" addto="fill"><path d="M 0,1.5 l 3,0" stroke-width="1" shape-rendering="auto" stroke="#000000" stroke-linecap="square"/></pattern></defs><path fill="url(#fill15295048212190)" stroke="#000000" stroke-width="1" d="M 197 111 L 218 111 L 206 169 z" type="linear" stroke-opacity="1.0" fill-opacity="null"/></g>
<g xmlns="http://www.w3.org/2000/svg" nativewidth="21" nativeheight="58" myscale="0.5" transform="matrix(-0.25 -0.433013 0.433013 -0.25 425.594 525.145)" category="Skeletal Structure" name="Francis Hemsher" email="fhemsher@gmail.com" utcms="1529504845712" parentid="component1529504845712"><defs><pattern id="fill15295048212190" patternUnits="userSpaceOnUse" width="3" height="3" addto="fill"><path d="M 0,1.5 l 3,0" stroke-width="1" shape-rendering="auto" stroke="#000000" stroke-linecap="square"/></pattern></defs><path fill="url(#fill15295048212190)" stroke="#000000" stroke-width="1" d="M 197 111 L 218 111 L 206 169 z" type="linear" stroke-opacity="1.0" fill-opacity="null"/></g>
<text font-family="Arial" font-size="20" font-weight="normal" font-style="normal" stroke="none" stroke-width="0.4" fill="#000000" transform="matrix(1 0 0 1 450 315)" filter="null">CH<tspan baseline-shift="sub">3</tspan></text><text font-family="Arial" font-size="20" font-weight="normal" font-style="normal" stroke="none" stroke-width="0.4" fill="#000000" transform="matrix(1 0 0 1 494 469)" filter="null">CH<tspan baseline-shift="sub">3</tspan></text><text font-family="Arial" font-size="20" font-weight="normal" font-style="normal" stroke="none" stroke-width="0.4" fill="#000000" transform="matrix(1 0 0 1 389 419)" filter="null">HO</text><text font-family="Arial" font-size="20" font-weight="normal" font-style="normal" stroke="none" stroke-width="0.4" fill="#000000" transform="matrix(1 0 0 1 406 472)" filter="null">H<tspan baseline-shift="sub">3</tspan></text><text font-family="Arial" font-size="20" font-weight="normal" font-style="normal" stroke="none" stroke-width="0" fill="#000000" transform="matrix(1 0 0 1 433 470)">C</text><g xmlns="http://www.w3.org/2000/svg" nativewidth="101" nativeheight="29" myscale="0.5" transform="matrix(0.5 0 0 0.5 273.75 312.75)" category="Skeletal Structure" name="Francis Hemsher" email="fhemsher@gmail.com" utcms="1529498251709" parentid="component1529498251709"><path fill="none" fill-opacity="1.0" stroke="#000000" stroke-width="3" d="M 349 280 L 400 251 L 450 280" type="linear" stroke-opacity="1.0"/></g>
<rect width="145" height="190" stroke="none" fill="white" fill-opacity="0" transform="translate(389,297)"/></g>
<g xmlns="http://www.w3.org/2000/svg" id="schematic1529529996200" nativeWidth="145" nativeHeight="190" myscale="1.0" transform="translate(-591,-296)" category="Schematic" description="Neoisomenthol (-)" name="Francis Hemsher" email="fhemsher@gmail.com" utcMS="1529529996200" parentid="schematic1529529996200"><g xmlns="http://www.w3.org/2000/svg" nativewidth="155.884521484375" nativeheight="149.9999237060547" myscale="0.5" transform="matrix(0.5 0 0 0.5 472.942 237.5)" category="Skeletal Structure" name="Francis Hemsher" email="fhemsher@gmail.com" utcms="1529445272014" parentid="component1529445272014"><polygon stroke="#000000" stroke-width="3" fill="white" fill-opacity="0" vcnt="6" length="60" transform="matrix(0.866025 0.5 -0.5 0.866025 400 281)" points="60 0 30 -51.9615 -30 -51.9615 -60 -7.34788e-15 -30 51.9615 30 51.9615" size="edge"/></g>
<g xmlns="http://www.w3.org/2000/svg" nativewidth="21" nativeheight="59" myscale="0.5" transform="matrix(0.5 0 0 0.5 600.75 265.25)" category="Skeletal Structure" name="Francis Hemsher" email="fhemsher@gmail.com" utcms="1529504660418" parentid="component1529504660418"><path fill="#000000" fill-opacity="1.0" stroke="#000000" stroke-width="1" d="M 139 111 L 160 112 L 148 170 z" type="linear" stroke-opacity="1.0"/></g>
<g xmlns="http://www.w3.org/2000/svg" nativewidth="21" nativeheight="59" myscale="0.5" transform="matrix(-0.5 2.42861e-16 -2.42861e-16 -0.5 747.25 493.75)" category="Skeletal Structure" name="Francis Hemsher" email="fhemsher@gmail.com" utcms="1529504660418" parentid="component1529504660418"><path fill="#000000" fill-opacity="1.0" stroke="#000000" stroke-width="1" d="M 139 111 L 160 112 L 148 170 z" type="linear" stroke-opacity="1.0"/></g>
<g xmlns="http://www.w3.org/2000/svg" nativewidth="21" nativeheight="59" myscale="0.5" transform="matrix(-0.25 -0.433013 0.433013 -0.25 610.924 500.45)" category="Skeletal Structure" name="Francis Hemsher" email="fhemsher@gmail.com" utcms="1529504660418" parentid="component1529504660418"><path fill="#000000" fill-opacity="1.0" stroke="#000000" stroke-width="1" d="M 139 111 L 160 112 L 148 170 z" type="linear" stroke-opacity="1.0"/></g>
<text font-family="Arial" font-size="20" font-weight="normal" font-style="normal" stroke="none" stroke-width="0.4" fill="#000000" transform="matrix(1 0 0 1 656 314)" filter="null">CH<tspan baseline-shift="sub">3</tspan></text><text font-family="Arial" font-size="20" font-weight="normal" font-style="normal" stroke="none" stroke-width="0.4" fill="#000000" transform="matrix(1 0 0 1 696 471)" filter="null">CH<tspan baseline-shift="sub">3</tspan></text><text font-family="Arial" font-size="20" font-weight="normal" font-style="normal" stroke="none" stroke-width="0.4" fill="#000000" transform="matrix(1 0 0 1 591 419)" filter="null">HO</text><text font-family="Arial" font-size="20" font-weight="normal" font-style="normal" stroke="none" stroke-width="0.4" fill="#000000" transform="matrix(1 0 0 1 613 470)" filter="null">H<tspan baseline-shift="sub">3</tspan></text><text font-family="Arial" font-size="20" font-weight="normal" font-style="normal" stroke="none" stroke-width="0" fill="#000000" transform="matrix(1 0 0 1 642 472)">C</text><g xmlns="http://www.w3.org/2000/svg" nativewidth="101" nativeheight="29" myscale="0.5" transform="matrix(0.5 0 0 0.5 473.75 313.75)" category="Skeletal Structure" name="Francis Hemsher" email="fhemsher@gmail.com" utcms="1529498251709" parentid="component1529498251709"><path fill="none" fill-opacity="1.0" stroke="#000000" stroke-width="3" d="M 349 280 L 400 251 L 450 280" type="linear" stroke-opacity="1.0"/></g>
<rect width="145" height="190" stroke="none" fill="white" fill-opacity="0" transform="translate(591,296)"/></g>
</svg>
